<svg xmlns="http://www.w3.org/2000/svg" width="19" height="18"><path d="M18.851 5.21l-3.257 7.31a1.625 1.625 0 01-1.48.98H3.8a1.663 1.663 0 01-1.629-1.69V3.44l-1.932-2A.845.845 0 010 .84.83.83 0 01.814 0a.772.772 0 01.576.25l2.476 2.56h13.5A1.662 1.662 0 0119 4.5a1.771 1.771 0 01-.149.71zM3.8 11.81h10.314l2-4.5H3.8v4.5zM17.371 4.5H3.8v1.12h13.071l.5-1.12zM4.343 14.62a1.691 1.691 0 11-1.629 1.69 1.662 1.662 0 011.629-1.69zm8.686 0a1.691 1.691 0 11-1.629 1.69 1.662 1.662 0 011.629-1.69z" fill="#fff" fill-rule="evenodd"/></svg>